<?xml version="1.0" encoding="UTF-8" standalone="no"?>
<svg
   xmlns:dc="http://purl.org/dc/elements/1.1/"
   xmlns:cc="http://creativecommons.org/ns#"
   xmlns:rdf="http://www.w3.org/1999/02/22-rdf-syntax-ns#"
   xmlns:svg="http://www.w3.org/2000/svg"
   xmlns="http://www.w3.org/2000/svg"
   xmlns:xlink="http://www.w3.org/1999/xlink"
   xmlns:sodipodi="http://sodipodi.sourceforge.net/DTD/sodipodi-0.dtd"
   xmlns:inkscape="http://www.inkscape.org/namespaces/inkscape"
   id="Layer_1"
   data-name="Layer 1"
   viewBox="0 0 710 150.34"
   version="1.1"
   sodipodi:docname="Logo svg 168x35.svg"
   width="710"
   height="150.34"
   inkscape:export-filename="C:\Users\simon\Desktop\logo_mobile330x70.png"
   inkscape:export-xdpi="44.698685"
   inkscape:export-ydpi="44.698685"
   inkscape:version="0.92.3 (2405546, 2018-03-11)">
  <metadata
     id="metadata63">
    <rdf:RDF>
      <cc:Work
         rdf:about="">
        <dc:format>image/svg+xml</dc:format>
        <dc:type
           rdf:resource="http://purl.org/dc/dcmitype/StillImage" />
        <dc:title>Logo svg</dc:title>
      </cc:Work>
    </rdf:RDF>
  </metadata>
  <sodipodi:namedview
     pagecolor="#ffffff"
     bordercolor="#666666"
     borderopacity="1"
     objecttolerance="10"
     gridtolerance="10"
     guidetolerance="10"
     inkscape:pageopacity="0"
     inkscape:pageshadow="2"
     inkscape:window-width="1920"
     inkscape:window-height="1017"
     id="namedview61"
     showgrid="false"
     inkscape:zoom="1.0338936"
     inkscape:cx="286.25688"
     inkscape:cy="-59.394605"
     inkscape:window-x="1358"
     inkscape:window-y="-8"
     inkscape:window-maximized="1"
     inkscape:current-layer="Layer_1" />
  <defs
     id="defs24">
    <style
       id="style2">.cls-1{fill:url(#linear-gradient);}.cls-2{fill:url(#linear-gradient-2);}.cls-3{fill:url(#linear-gradient-3);}.cls-4{fill:url(#linear-gradient-4);}.cls-5{fill:url(#linear-gradient-5);}.cls-6{fill:url(#linear-gradient-6);}.cls-7{fill:url(#linear-gradient-7);}.cls-8{fill:url(#linear-gradient-8);}.cls-9{fill:url(#linear-gradient-9);}.cls-10{fill:url(#linear-gradient-10);}.cls-11{fill:url(#linear-gradient-11);}.cls-12{fill:url(#linear-gradient-12);}.cls-13{fill:url(#linear-gradient-13);}.cls-14{fill:url(#linear-gradient-14);}.cls-15{fill:url(#linear-gradient-15);}.cls-16{fill:url(#linear-gradient-16);}</style>
    <linearGradient
       id="linear-gradient"
       x1="1.02"
       y1="1.9"
       x2="149.24001"
       y2="80.699997"
       gradientUnits="userSpaceOnUse">
      <stop
         offset="0"
         stop-color="#33b1e3"
         id="stop4" />
      <stop
         offset="1"
         stop-color="#009ddc"
         id="stop6" />
    </linearGradient>
    <linearGradient
       id="linear-gradient-2"
       x1="-7.9000001"
       y1="18.690001"
       x2="140.31"
       y2="97.480003"
       xlink:href="#linear-gradient"
       gradientTransform="translate(-36,-9.9999852)" />
    <linearGradient
       id="linear-gradient-3"
       x1="-8.9899998"
       y1="20.73"
       x2="139.23"
       y2="99.519997"
       xlink:href="#linear-gradient"
       gradientTransform="translate(-36,-9.9999852)" />
    <linearGradient
       id="linear-gradient-4"
       x1="-27.59"
       y1="55.73"
       x2="120.62"
       y2="134.53"
       xlink:href="#linear-gradient"
       gradientTransform="translate(-36,-9.9999852)" />
    <linearGradient
       id="linear-gradient-5"
       x1="-8.2600002"
       y1="19.360001"
       x2="139.96001"
       y2="98.150002"
       xlink:href="#linear-gradient"
       gradientTransform="translate(-36,-9.9999852)" />
    <linearGradient
       id="linear-gradient-6"
       x1="137.47"
       y1="18.66"
       x2="231.47"
       y2="107.99"
       xlink:href="#linear-gradient"
       gradientTransform="translate(-36,-9.9999852)" />
    <linearGradient
       id="linear-gradient-7"
       x1="151.21001"
       y1="4.1999998"
       x2="245.21001"
       y2="93.529999"
       xlink:href="#linear-gradient"
       gradientTransform="translate(-36,-9.9999852)" />
    <linearGradient
       id="linear-gradient-8"
       x1="178.69"
       y1="-24.709999"
       x2="272.69"
       y2="64.620003"
       xlink:href="#linear-gradient"
       gradientTransform="translate(-36,-9.9999852)" />
    <linearGradient
       id="linear-gradient-9"
       x1="202.81"
       y1="-50.099998"
       x2="296.81"
       y2="39.240002"
       xlink:href="#linear-gradient"
       gradientTransform="translate(-36,-9.9999852)" />
    <linearGradient
       id="linear-gradient-10"
       x1="336.85001"
       y1="52.360001"
       x2="476.85001"
       y2="125.03"
       xlink:href="#linear-gradient"
       gradientTransform="translate(-36,-9.9999852)" />
    <linearGradient
       id="linear-gradient-11"
       x1="344.41"
       y1="37.799999"
       x2="484.41"
       y2="110.47"
       xlink:href="#linear-gradient"
       gradientTransform="translate(-36,-9.9999852)" />
    <linearGradient
       id="linear-gradient-12"
       x1="353.60001"
       y1="20.08"
       x2="493.60001"
       y2="92.75"
       xlink:href="#linear-gradient"
       gradientTransform="translate(-36,-9.9999852)" />
    <linearGradient
       id="linear-gradient-13"
       x1="365.97"
       y1="-3.75"
       x2="505.97"
       y2="68.919998"
       xlink:href="#linear-gradient"
       gradientTransform="translate(-36,-9.9999852)" />
    <linearGradient
       id="linear-gradient-14"
       x1="378.35999"
       y1="-27.610001"
       x2="518.35999"
       y2="45.049999"
       xlink:href="#linear-gradient"
       gradientTransform="translate(-36,-9.9999852)" />
    <linearGradient
       id="linear-gradient-15"
       x1="390.73999"
       y1="-51.470001"
       x2="530.73999"
       y2="21.190001"
       xlink:href="#linear-gradient"
       gradientTransform="translate(-36,-9.9999852)" />
    <linearGradient
       id="linear-gradient-16"
       x1="400.62"
       y1="-70.5"
       x2="540.62"
       y2="2.1600001"
       xlink:href="#linear-gradient"
       gradientTransform="translate(-36,-9.9999852)" />
    <linearGradient
       inkscape:collect="always"
       xlink:href="#linear-gradient"
       id="linearGradient870"
       gradientUnits="userSpaceOnUse"
       x1="1.02"
       y1="1.9"
       x2="149.24001"
       y2="80.699997"
       gradientTransform="translate(-36,-9.9999852)" />
  </defs>
  <title
     id="title26">Logo svg</title>
  <path
     class="cls-1"
     d="m 88.85,75.620016 a 17.89,17.89 0 1 1 17.89,-17.88 17.9,17.9 0 0 1 -17.89,17.88 z m 0,-25.64 a 7.76,7.76 0 1 0 7.76,7.76 7.77,7.77 0 0 0 -7.76,-7.74 z"
     id="path28"
     inkscape:export-filename="C:\Users\simon\Desktop\logo170x27.png"
     inkscape:export-xdpi="23.339239"
     inkscape:export-ydpi="23.339239"
     inkscape:connector-curvature="0"
     style="fill:url(#linearGradient870)" />
  <path
     class="cls-2"
     d="m 65.87,130.81 a 5,5 0 0 1 -5,-4.31 L 51.26,62.500016 a 38.75,38.75 0 0 1 -0.26,-4.76 37.9,37.9 0 1 1 65.63,25.82 L 69.4,129.38 a 5.07,5.07 0 0 1 -3.53,1.43 z M 88.85,30.000016 a 27.8,27.8 0 0 0 -27.77,27.74 26.87,26.87 0 0 0 0.21,3.37 L 69.42,115.24 109.36,76.470016 a 27.78,27.78 0 0 0 -20.51,-46.47 z"
     id="path30"
     inkscape:export-filename="C:\Users\simon\Desktop\logo170x27.png"
     inkscape:export-xdpi="23.339239"
     inkscape:export-ydpi="23.339239"
     inkscape:connector-curvature="0"
     style="fill:url(#linear-gradient-2)" />
  <path
     class="cls-3"
     d="m 43.27,75.510016 a 19.36,19.36 0 0 1 -2.51,-0.17 17.89,17.89 0 1 1 16.74,-28.5 v 0 a 17.88,17.88 0 0 1 -14.23,28.67 z m 0,-25.64 a 7.75,7.75 0 1 0 6.15,3.13 v 0 a 7.74,7.74 0 0 0 -6.2,-3.13 z"
     id="path32"
     inkscape:export-filename="C:\Users\simon\Desktop\logo170x27.png"
     inkscape:export-xdpi="23.339239"
     inkscape:export-ydpi="23.339239"
     inkscape:connector-curvature="0"
     style="fill:url(#linear-gradient-3)" />
  <path
     class="cls-4"
     d="m 65.87,130.81 a 5,5 0 0 1 -3.54,-1.44 L 16.08,84.060016 a 38.49,38.49 0 0 1 -3.08,-3.61 5.07,5.07 0 1 1 8.1,-6.09 27,27 0 0 0 2.19,2.57 L 69.43,122.13 a 5.06,5.06 0 0 1 -3.54,8.68 z"
     id="path34"
     inkscape:export-filename="C:\Users\simon\Desktop\logo170x27.png"
     inkscape:export-xdpi="23.339239"
     inkscape:export-ydpi="23.339239"
     inkscape:connector-curvature="0"
     style="fill:url(#linear-gradient-4)" />
  <path
     class="cls-5"
     d="m 17,82.470016 a 5.07,5.07 0 0 1 -4,-2 37.9,37.9 0 0 1 56.36,-50.3 5.0677633,5.0677633 0 0 1 -7,7.33 27.77,27.77 0 0 0 -41.29,36.85 5.07,5.07 0 0 1 -1,7.09 5,5 0 0 1 -3.07,1.03 z"
     id="path36"
     inkscape:export-filename="C:\Users\simon\Desktop\logo170x27.png"
     inkscape:export-xdpi="23.339239"
     inkscape:export-ydpi="23.339239"
     inkscape:connector-curvature="0"
     style="fill:url(#linear-gradient-5)" />
  <path
     class="cls-6"
     d="M 171.29,55.000016 167.59,109 c -0.07,1 -0.43,1.47 -1.07,1.47 h -5.36 q -5.46,0 -7.8,-2.15 a 7.89,7.89 0 0 1 -2.34,-6.14 q 0,-1.45 0.15,-4.379984 c 0.1,-2 0.24,-4.24 0.44,-6.87 0.2,-2.63 0.4,-5.49 0.63,-8.57 0.23,-3.08 0.47,-6.21 0.73,-9.36 0.26,-3.15 0.5,-6.28 0.73,-9.4 0.23,-3.12 0.44,-6 0.63,-8.67 h -15.59 c -0.71,0 -1.07,-0.46 -1.07,-1.37 l 0.3,-5.45 a 13,13 0 0 1 0.43,-2.49 6.15,6.15 0 0 1 1.12,-2.19 5.66,5.66 0 0 1 2,-1.56 6.81,6.81 0 0 1 3,-0.59 h 43.56 a 2,2 0 0 1 1.07,0.3 1.13,1.13 0 0 1 0.49,1.07 l -0.39,5.75 a 8.37,8.37 0 0 1 -1.61,4.72 q -1.44,1.88 -5.83,1.88 z"
     id="path38"
     inkscape:export-filename="C:\Users\simon\Desktop\logo170x27.png"
     inkscape:export-xdpi="23.339239"
     inkscape:export-ydpi="23.339239"
     inkscape:connector-curvature="0"
     style="fill:url(#linear-gradient-6)" />
  <path
     class="cls-7"
     d="m 206.07,111.47 a 28.34,28.34 0 0 1 -11.15,-1.9 17.76,17.76 0 0 1 -7.07,-5.21 19.71,19.71 0 0 1 -3.7,-7.749984 40.53,40.53 0 0 1 -1.07,-9.5 46.75,46.75 0 0 1 1.41,-11.45 26.69,26.69 0 0 1 4.83,-10 24.63,24.63 0 0 1 9,-7.06 q 5.59,-2.69 14,-2.68 12.29,0 17.59,6 5.3,6 5.31,16.81 a 57,57 0 0 1 -0.44,6.68 35.57,35.57 0 0 1 -1.66,7.26 34.11,34.11 0 0 1 -3.31,7 24,24 0 0 1 -5.31,5.999984 24.65,24.65 0 0 1 -7.75,4.19 32.79,32.79 0 0 1 -10.68,1.61 z m 4.59,-42.579984 a 8.68,8.68 0 0 0 -5.9,1.9 12.15,12.15 0 0 0 -3.31,4.58 20.35,20.35 0 0 0 -1.45,5.63 44.93,44.93 0 0 0 -0.35,5 c 0,4.29 0.69,7.44 2.05,9.45 a 6.62,6.62 0 0 0 5.85,3 7.67,7.67 0 0 0 5.6,-2.14 14.9,14.9 0 0 0 3.41,-5.17 26.34,26.34 0 0 0 1.66,-6.33 44.1,44.1 0 0 0 0.44,-5.55 14,14 0 0 0 -1.81,-7.65 q -1.85,-2.72 -6.19,-2.72 z"
     id="path40"
     inkscape:export-filename="C:\Users\simon\Desktop\logo170x27.png"
     inkscape:export-xdpi="23.339239"
     inkscape:export-ydpi="23.339239"
     inkscape:connector-curvature="0"
     style="fill:url(#linear-gradient-7)" />
  <path
     class="cls-8"
     d="m 259.18,65.190016 q 0,2 -0.34,5.75 -0.34,3.75 -0.68,7.69 -0.35,4 -0.69,7.51 c -0.22,2.33 -0.34,4 -0.34,5.06 a 7.64,7.64 0 0 0 1.71,5.31 6,6 0 0 0 4.72,1.9 5.63,5.63 0 0 0 4.44,-2.09 16.2,16.2 0 0 0 2.92,-5.46 47.39,47.39 0 0 0 1.8,-7.65 c 0.46,-2.85 0.8,-5.75 1,-8.67 0.2,-2.92 0.42,-5.76 0.58,-8.53 0.16,-2.77 0.34,-5.14 0.54,-7.16 a 2.57,2.57 0 0 1 0.58,-1.36 1.92,1.92 0 0 1 1.58,-0.59 h 3.51 a 16,16 0 0 1 4.92,0.64 7.25,7.25 0 0 1 3,1.8 6.31,6.31 0 0 1 1.57,2.88 16,16 0 0 1 0.44,3.94 q 0,1.47 -0.15,4.14 -0.15,2.67 -0.53,7.41 c -0.27,3.15 -0.57,7.14 -0.93,12 -0.36,4.86 -0.8,10.839984 -1.32,17.999984 a 8.34,8.34 0 0 1 -0.43,2.44 c -0.17,0.26 -0.7,0.39 -1.61,0.39 h -3.8 a 14.37,14.37 0 0 1 -4.83,-0.69 8.87,8.87 0 0 1 -3.07,-1.75 6,6 0 0 1 -1.65,-2.53 11.88,11.88 0 0 1 -0.59,-3 19.44,19.44 0 0 1 -3.26,4.28 16.09,16.09 0 0 1 -3.75,2.78 15.55,15.55 0 0 1 -4,1.46 19.12,19.12 0 0 1 -4,0.44 17.15,17.15 0 0 1 -6.63,-1.22 14.64,14.64 0 0 1 -4.89,-3.31 14.16,14.16 0 0 1 -3.07,-4.87 17,17 0 0 1 -1.07,-5.999984 c 0,-0.85 0.05,-2.23 0.15,-4.15 0.1,-1.92 0.22,-4.07 0.39,-6.48 0.17,-2.41 0.34,-5 0.53,-7.65 0.19,-2.65 0.38,-5.24 0.54,-7.64 0.16,-2.4 0.32,-4.52 0.48,-6.34 0.16,-1.82 0.28,-3.12 0.35,-3.89 a 4.33,4.33 0 0 1 0.78,-2.39 2.54,2.54 0 0 1 1.92,-0.69 h 3.12 a 17.6,17.6 0 0 1 5,0.59 7.43,7.43 0 0 1 3.07,1.66 5.62,5.62 0 0 1 1.56,2.58 12.53,12.53 0 0 1 0.43,3.46 z"
     id="path42"
     inkscape:export-filename="C:\Users\simon\Desktop\logo170x27.png"
     inkscape:export-xdpi="23.339239"
     inkscape:export-ydpi="23.339239"
     inkscape:connector-curvature="0"
     style="fill:url(#linear-gradient-8)" />
  <path
     class="cls-9"
     d="m 328.55,80.190016 c -0.39,0 -0.82,0 -1.31,0 a 9,9 0 0 1 -1.41,-0.19 5,5 0 0 1 -1.17,-0.39 0.71,0.71 0 0 1 -0.49,-0.63 c 0,-0.85 0,-1.63 0.1,-2.34 0.1,-0.71 0.09,-1.46 0.09,-2.24 a 9,9 0 0 0 -0.58,-3.51 2.29,2.29 0 0 0 -2.34,-1.37 q -2.73,0 -4.53,3.56 -1.8,3.56 -2.29,10.62 -0.19,3.12 -0.54,7.06 c -0.22,2.64 -0.43,5.17 -0.63,7.61 -0.2,2.439984 -0.36,4.589984 -0.49,6.469984 -0.13,1.88 -0.19,3.12 -0.19,3.71 a 1.69,1.69 0 0 1 -0.68,1.46 2.44,2.44 0 0 1 -1.46,0.49 h -3.51 a 15.57,15.57 0 0 1 -4.92,-0.64 7.18,7.18 0 0 1 -3,-1.8 6.33,6.33 0 0 1 -1.56,-2.87 15.64,15.64 0 0 1 -0.44,-4 c 0,-1 0.05,-2.349984 0.14,-4.139984 0.09,-1.79 0.28,-4.26 0.54,-7.41 0.26,-3.15 0.57,-7.14 0.93,-12 0.36,-4.86 0.79,-10.83 1.31,-18 0.13,-1.88 0.81,-2.83 2,-2.83 H 306 a 15.4,15.4 0 0 1 4.58,0.59 8.41,8.41 0 0 1 3,1.61 6.06,6.06 0 0 1 1.7,2.38 12.55,12.55 0 0 1 0.74,2.83 15.42,15.42 0 0 1 2.77,-3.85 16.51,16.51 0 0 1 3.36,-2.63 13.1,13.1 0 0 1 3.61,-1.46 15,15 0 0 1 3.41,-0.44 11.19,11.19 0 0 1 3.75,0.68 10.78,10.78 0 0 1 3.46,2 9.57,9.57 0 0 1 2.48,3.51 12.63,12.63 0 0 1 0.93,5.06 15.59,15.59 0 0 1 -0.78,5 13.13,13.13 0 0 1 -2.24,4.14 10.23,10.23 0 0 1 -3.56,2.83 10.45,10.45 0 0 1 -4.66,1.13 z"
     id="path44"
     inkscape:export-filename="C:\Users\simon\Desktop\logo170x27.png"
     inkscape:export-xdpi="23.339239"
     inkscape:export-ydpi="23.339239"
     inkscape:connector-curvature="0"
     style="fill:url(#linear-gradient-9)" />
  <path
     class="cls-10"
     d="m 369.58,40.340016 q 9.15,0 13.59,4 a 13.37,13.37 0 0 1 4.43,10.42 q 0,5.46 -3,8.33 -3,2.87 -8.69,2.91 a 4.68,4.68 0 0 1 -2.24,-0.34 1.64,1.64 0 0 1 -0.49,-1.42 c 0,-0.65 -0.05,-1.49 -0.15,-2.53 a 10.5,10.5 0 0 0 -0.73,-3 6,6 0 0 0 -1.85,-2.49 5.42,5.42 0 0 0 -3.5,-1 8.75,8.75 0 0 0 -5.56,1.9 6,6 0 0 0 -2.39,4.88 5.31,5.31 0 0 0 2,4.29 23.49,23.49 0 0 0 5,3.07 c 2,0.94 4.21,1.9 6.58,2.87 a 27.42,27.42 0 0 1 6.57,3.85 19.79,19.79 0 0 1 5,6 18.23,18.23 0 0 1 2,9 22.66,22.66 0 0 1 -1.41,8 18.4,18.4 0 0 1 -4.19,6.529984 19,19 0 0 1 -7,4.33 28.56,28.56 0 0 1 -9.89,1.56 36.08,36.08 0 0 1 -9,-1.07 34.08,34.08 0 0 1 -7.21,-2.68 17.53,17.53 0 0 1 -4.83,-3.51 5.46,5.46 0 0 1 -1.75,-3.46 41,41 0 0 1 0.73,-9.249984 c 0.49,-1.89 1.38,-2.83 2.68,-2.83 a 4.79,4.79 0 0 1 2.88,1.17 c 1,0.78 2.16,1.66 3.45,2.63 a 24.18,24.18 0 0 0 4.54,2.63 14.35,14.35 0 0 0 6,1.17 14.92,14.92 0 0 0 2.68,-0.24 7.38,7.38 0 0 0 2.34,-0.83 4.74,4.74 0 0 0 1.65,-1.56 4.14,4.14 0 0 0 0.64,-2.34 4.72,4.72 0 0 0 -1.86,-3.9 21.29,21.29 0 0 0 -4.67,-2.68 q -2.83,-1.22 -6.09,-2.53 a 23.84,23.84 0 0 1 -6.09,-3.6 18.06,18.06 0 0 1 -4.68,-5.9 20.28,20.28 0 0 1 -1.85,-9.26 22,22 0 0 1 2.39,-10.71 21.45,21.45 0 0 1 6.14,-7.17 24.22,24.22 0 0 1 8.47,-4 37.69,37.69 0 0 1 9.36,-1.24 z"
     id="path46"
     inkscape:export-filename="C:\Users\simon\Desktop\logo170x27.png"
     inkscape:export-xdpi="23.339239"
     inkscape:export-ydpi="23.339239"
     inkscape:connector-curvature="0"
     style="fill:url(#linear-gradient-10)" />
  <path
     class="cls-11"
     d="m 417.12,98.510016 a 14.13,14.13 0 0 0 4.93,-0.78 20.34,20.34 0 0 0 3.65,-1.73 c 1,-0.65 1.91,-1.24 2.63,-1.76 a 3.4,3.4 0 0 1 1.95,-0.78 c 1.49,0 2.24,1 2.24,2.93 a 9,9 0 0 1 -0.29,1.9 24.84,24.84 0 0 1 -0.78,2.529984 q -0.49,1.32 -1,2.49 a 7.89,7.89 0 0 1 -1,1.75 c -0.32,0.33 -0.89,0.85 -1.7,1.56 a 16.83,16.83 0 0 1 -3.27,2.14 26.76,26.76 0 0 1 -4.77,1.9 20.85,20.85 0 0 1 -6,0.83 27.83,27.83 0 0 1 -7.65,-1.12 18.68,18.68 0 0 1 -7.16,-3.9 20.73,20.73 0 0 1 -5.31,-7.499984 29.22,29.22 0 0 1 -2.1,-11.84 55.8,55.8 0 0 1 0.34,-5.8 35,35 0 0 1 1.42,-6.72 38.2,38.2 0 0 1 2.75,-6.84 21.17,21.17 0 0 1 4.82,-6 23.63,23.63 0 0 1 7.26,-4.24 28.51,28.51 0 0 1 10.09,-1.61 26.76,26.76 0 0 1 8.23,1.12 16.55,16.55 0 0 1 5.7,3 12.41,12.41 0 0 1 3.36,4.44 13.22,13.22 0 0 1 1.15,5.52 q 0,5.27 -3.31,7.75 -3.31,2.48 -9.3,2.44 a 5.54,5.54 0 0 1 -2,-0.24 c -0.36,-0.16 -0.54,-0.54 -0.54,-1.12 0,-1.56 0,-3 -0.1,-4.19 a 11.48,11.48 0 0 0 -0.53,-3.12 3.56,3.56 0 0 0 -3.85,-2.63 6.25,6.25 0 0 0 -4.82,2 12.61,12.61 0 0 0 -2.73,4.72 24.27,24.27 0 0 0 -1.17,5.7 c -0.16,1.95 -0.24,3.58 -0.24,4.88 0,4.61 0.73,7.83 2.19,9.64 1.46,1.81 3.73,2.68 6.91,2.68 z"
     id="path48"
     inkscape:export-filename="C:\Users\simon\Desktop\logo170x27.png"
     inkscape:export-xdpi="23.339239"
     inkscape:export-ydpi="23.339239"
     inkscape:connector-curvature="0"
     style="fill:url(#linear-gradient-11)" />
  <path
     class="cls-12"
     d="m 437.2,98.510016 q 0,-8.76 7.89,-13.74 7.89,-4.98 23.29,-5.36 c 0.06,-0.71 0.11,-1.31 0.14,-1.8 0.03,-0.49 0.05,-1.09 0.05,-1.8 a 9.21,9.21 0 0 0 -1.17,-5 q -1.17,-1.81 -4.87,-1.81 a 8,8 0 0 0 -3.31,0.58 5.32,5.32 0 0 0 -2.05,1.61 8.37,8.37 0 0 0 -1.26,2.48 31.56,31.56 0 0 0 -0.88,3.22 1.4,1.4 0 0 1 -0.88,1.12 7,7 0 0 1 -2.14,0.24 q -9.94,0 -9.94,-7.5 a 12.37,12.37 0 0 1 1.41,-5.75 13.38,13.38 0 0 1 4.19,-4.72 22,22 0 0 1 7,-3.17 36.36,36.36 0 0 1 9.74,-1.17 q 10.81,0 15.69,4.48 4.88,4.48 4.87,12.67 c 0,0.72 -0.08,2 -0.24,3.85 -0.16,1.85 -0.36,3.8 -0.59,5.84 -0.23,2.04 -0.42,4 -0.58,5.8 -0.16,1.8 -0.24,3.09 -0.24,3.8 a 5.36,5.36 0 0 0 0.87,3.46 4.58,4.58 0 0 0 2,1.41 16.22,16.22 0 0 0 2,0.59 1,1 0 0 1 0.87,1 17.38,17.38 0 0 1 -0.58,4.389984 12.34,12.34 0 0 1 -1.9,4.09 9.73,9.73 0 0 1 -3.61,3 12.18,12.18 0 0 1 -5.6,1.17 c -3.12,0 -5.45,-0.75 -7,-2.24 a 11.36,11.36 0 0 1 -3.12,-6.24 22.59,22.59 0 0 1 -6.09,6 q -3.75,2.53 -9.8,2.53 a 21.69,21.69 0 0 1 -5.5,-0.68 11.53,11.53 0 0 1 -4.48,-2.24 10.84,10.84 0 0 1 -3,-4 14.43,14.43 0 0 1 -1.18,-6.109984 z m 30.3,-11.11 a 31.35,31.35 0 0 0 -5,0.39 17.94,17.94 0 0 0 -4.3,1.21 8.3,8.3 0 0 0 -3.07,2.19 4.93,4.93 0 0 0 -1.17,3.32 3.36,3.36 0 0 0 1.41,3.11 5.65,5.65 0 0 0 3.07,0.88 7.81,7.81 0 0 0 3.12,-0.68 7.67,7.67 0 0 0 2.77,-2.1 13.16,13.16 0 0 0 2.1,-3.45 15.15,15.15 0 0 0 1.07,-4.87 z"
     id="path50"
     inkscape:export-filename="C:\Users\simon\Desktop\logo170x27.png"
     inkscape:export-xdpi="23.339239"
     inkscape:export-ydpi="23.339239"
     inkscape:connector-curvature="0"
     style="fill:url(#linear-gradient-12)" />
  <path
     class="cls-13"
     d="m 526.26,101.92 c 0,-1.43 0.11,-3.289984 0.34,-5.599984 0.23,-2.31 0.45,-4.74 0.68,-7.31 0.23,-2.57 0.45,-5.05 0.68,-7.45 0.23,-2.4 0.34,-4.42 0.34,-6 a 8.51,8.51 0 0 0 -1.22,-4.56 q -1.22,-2 -4.72,-2 a 9.25,9.25 0 0 0 -5.65,1.65 q -2.25,1.67 -3.76,6 a 63.8,63.8 0 0 0 -2.48,12.09 q -1,7.7 -1.85,19.779984 a 2.61,2.61 0 0 1 -0.49,1.56 2.44,2.44 0 0 1 -1.65,0.39 H 503 a 15.57,15.57 0 0 1 -4.92,-0.64 7.18,7.18 0 0 1 -3,-1.8 6.33,6.33 0 0 1 -1.56,-2.87 16.11,16.11 0 0 1 -0.44,-4 c 0,-1 0.05,-2.349984 0.15,-4.139984 0.1,-1.79 0.27,-4.26 0.53,-7.41 0.26,-3.15 0.57,-7.14 0.93,-12 0.36,-4.86 0.79,-10.83 1.31,-18 a 4.94,4.94 0 0 1 0.49,-2.53 q 0.28,-0.3 1.56,-0.3 h 3.8 a 14.26,14.26 0 0 1 4.82,0.69 8.4,8.4 0 0 1 3.07,1.8 6.31,6.31 0 0 1 1.61,2.73 12.51,12.51 0 0 1 0.58,3.07 q 3,-5.16 6.92,-7.16 a 21.27,21.27 0 0 1 9.74,-2 25.52,25.52 0 0 1 7.12,0.88 11,11 0 0 1 5,3 13,13 0 0 1 3,5.46 30.33,30.33 0 0 1 1,8.33 c 0,1 -0.06,2.53 -0.19,4.48 -0.13,1.95 -0.3,4.08 -0.49,6.38 -0.19,2.3 -0.41,4.71 -0.63,7.21 -0.22,2.5 -0.44,4.83 -0.64,7 -0.2,2.169984 -0.36,3.999984 -0.48,5.649984 -0.12,1.65 -0.2,2.7 -0.2,3.22 0,1.43 -0.16,2.29 -0.49,2.58 a 3.49,3.49 0 0 1 -2.14,0.44 h -3.12 a 17.94,17.94 0 0 1 -5.06,-0.59 7.11,7.11 0 0 1 -3,-1.65 6.06,6.06 0 0 1 -1.51,-2.68 14.09,14.09 0 0 1 -0.5,-3.7 z"
     id="path52"
     inkscape:export-filename="C:\Users\simon\Desktop\logo170x27.png"
     inkscape:export-xdpi="23.339239"
     inkscape:export-ydpi="23.339239"
     inkscape:connector-curvature="0"
     style="fill:url(#linear-gradient-13)" />
  <path
     class="cls-14"
     d="m 584.62,101.92 c 0,-1.43 0.11,-3.289984 0.34,-5.599984 0.23,-2.31 0.45,-4.74 0.68,-7.31 0.23,-2.57 0.46,-5.05 0.68,-7.45 0.22,-2.4 0.35,-4.42 0.35,-6 a 8.6,8.6 0 0 0 -1.22,-4.56 q -1.22,-2 -4.73,-2 a 9.27,9.27 0 0 0 -5.65,1.65 q -2.24,1.67 -3.75,6 a 62.91,62.91 0 0 0 -2.49,12.09 q -1,7.7 -1.85,19.779984 a 2.55,2.55 0 0 1 -0.48,1.56 2.47,2.47 0 0 1 -1.66,0.39 h -3.51 a 15.66,15.66 0 0 1 -4.92,-0.64 7.25,7.25 0 0 1 -3,-1.8 6.33,6.33 0 0 1 -1.56,-2.87 16.11,16.11 0 0 1 -0.44,-4 c 0,-1 0.05,-2.349984 0.15,-4.139984 0.1,-1.79 0.28,-4.26 0.53,-7.41 0.25,-3.15 0.57,-7.14 0.93,-12 0.36,-4.86 0.8,-10.83 1.32,-18 a 4.87,4.87 0 0 1 0.48,-2.53 2.51,2.51 0 0 1 1.56,-0.3 h 3.8 a 14.37,14.37 0 0 1 4.83,0.69 8.49,8.49 0 0 1 3.07,1.8 6.28,6.28 0 0 1 1.63,2.73 12.53,12.53 0 0 1 0.59,3.07 17.77,17.77 0 0 1 6.91,-7.16 21.29,21.29 0 0 1 9.75,-2 25.4,25.4 0 0 1 7.11,0.88 11,11 0 0 1 5,3 13,13 0 0 1 3,5.46 30.29,30.29 0 0 1 1,8.33 c 0,1 -0.07,2.53 -0.2,4.48 -0.13,1.95 -0.29,4.08 -0.49,6.38 -0.2,2.3 -0.4,4.71 -0.63,7.21 -0.23,2.5 -0.44,4.83 -0.63,7 -0.19,2.169984 -0.36,3.999984 -0.49,5.649984 -0.13,1.65 -0.19,2.7 -0.19,3.22 0,1.43 -0.17,2.29 -0.49,2.58 a 3.52,3.52 0 0 1 -2.15,0.44 h -3.11 a 18.07,18.07 0 0 1 -5.07,-0.59 7.07,7.07 0 0 1 -3,-1.65 5.87,5.87 0 0 1 -1.51,-2.68 14.07,14.07 0 0 1 -0.49,-3.7 z"
     id="path54"
     inkscape:export-filename="C:\Users\simon\Desktop\logo170x27.png"
     inkscape:export-xdpi="23.339239"
     inkscape:export-ydpi="23.339239"
     inkscape:connector-curvature="0"
     style="fill:url(#linear-gradient-14)" />
  <path
     class="cls-15"
     d="m 632.27,111.47 a 34.92,34.92 0 0 1 -8.53,-1.07 20.33,20.33 0 0 1 -7.6,-3.7 19.71,19.71 0 0 1 -5.5,-6.999984 25,25 0 0 1 -2.15,-11 52.81,52.81 0 0 1 0.39,-5.85 38,38 0 0 1 1.51,-7 37.49,37.49 0 0 1 3.12,-7.16 24.51,24.51 0 0 1 5.21,-6.39 25.59,25.59 0 0 1 7.8,-4.58 30.48,30.48 0 0 1 10.91,-1.75 27.36,27.36 0 0 1 8.57,1.13 15.33,15.33 0 0 1 5.65,3.17 11.92,11.92 0 0 1 3.12,4.62 16.41,16.41 0 0 1 1,5.66 15,15 0 0 1 -1.8,7.6 16.82,16.82 0 0 1 -4.68,5.21 23.16,23.16 0 0 1 -6.38,3.26 53.19,53.19 0 0 1 -6.91,1.81 48.73,48.73 0 0 1 -6.29,0.78 c -1.91,0.09 -3.39,0.14 -4.43,0.14 a 12.72,12.72 0 0 0 0.54,3.66 9.17,9.17 0 0 0 1.61,3.16 8,8 0 0 0 2.82,2.24 9.45,9.45 0 0 0 4.29,0.88 7.83,7.83 0 0 0 3.94,-0.83 8.7,8.7 0 0 0 2.29,-1.85 c 0.59,-0.68 1.09,-1.3 1.51,-1.85 a 2.05,2.05 0 0 1 1.71,-0.83 9.67,9.67 0 0 1 1.7,0.25 7.55,7.55 0 0 1 2.49,1 7.81,7.81 0 0 1 2.24,2.14 5.9,5.9 0 0 1 1,3.509984 7.23,7.23 0 0 1 -1.75,4.87 12.8,12.8 0 0 1 -4.53,3.31 24.76,24.76 0 0 1 -6.19,1.86 39.09,39.09 0 0 1 -6.68,0.6 z m 1.85,-42.579984 a 5.67,5.67 0 0 0 -3.66,1.22 10.23,10.23 0 0 0 -2.53,3.07 16.37,16.37 0 0 0 -1.56,4.09 c -0.36,1.49 -0.63,2.92 -0.83,4.29 a 22.15,22.15 0 0 0 9.8,-2 q 3.75,-2 3.75,-5.55 a 5.57,5.57 0 0 0 -1.22,-3.51 4.46,4.46 0 0 0 -3.75,-1.61 z"
     id="path56"
     inkscape:export-filename="C:\Users\simon\Desktop\logo170x27.png"
     inkscape:export-xdpi="23.339239"
     inkscape:export-ydpi="23.339239"
     inkscape:connector-curvature="0"
     style="fill:url(#linear-gradient-15)" />
  <path
     class="cls-16"
     d="m 691.12,80.190016 c -0.39,0 -0.83,0 -1.32,0 a 9.38,9.38 0 0 1 -1.41,-0.19 5.34,5.34 0 0 1 -1.17,-0.39 0.72,0.72 0 0 1 -0.48,-0.63 q 0,-1.28 0.09,-2.34 c 0.07,-0.72 0.1,-1.46 0.1,-2.24 a 9,9 0 0 0 -0.58,-3.51 2.29,2.29 0 0 0 -2.35,-1.42 q -2.73,0 -4.53,3.56 -1.8,3.56 -2.28,10.67 -0.2,3.12 -0.54,7.06 c -0.23,2.64 -0.44,5.17 -0.63,7.61 -0.19,2.439984 -0.36,4.589984 -0.49,6.469984 -0.13,1.88 -0.2,3.12 -0.2,3.71 a 1.67,1.67 0 0 1 -0.68,1.46 2.42,2.42 0 0 1 -1.46,0.49 h -3.51 a 15.66,15.66 0 0 1 -4.92,-0.64 7.31,7.31 0 0 1 -3,-1.8 6.43,6.43 0 0 1 -1.56,-2.87 16.11,16.11 0 0 1 -0.44,-4 c 0,-1 0,-2.349984 0.15,-4.139984 0.15,-1.79 0.28,-4.26 0.54,-7.41 0.26,-3.15 0.56,-7.14 0.92,-12 0.36,-4.86 0.8,-10.83 1.32,-18 0.13,-1.88 0.81,-2.83 2,-2.83 h 3.8 a 15.35,15.35 0 0 1 4.58,0.59 8.33,8.33 0 0 1 3,1.61 6.18,6.18 0 0 1 1.71,2.38 12,12 0 0 1 0.73,2.83 15.71,15.71 0 0 1 2.78,-3.85 16.51,16.51 0 0 1 3.36,-2.63 13.17,13.17 0 0 1 3.6,-1.46 15,15 0 0 1 3.41,-0.44 11.2,11.2 0 0 1 3.76,0.68 10.74,10.74 0 0 1 3.45,2 9.71,9.71 0 0 1 2.49,3.51 12.63,12.63 0 0 1 0.93,5.06 15.59,15.59 0 0 1 -0.78,5 13.13,13.13 0 0 1 -2.24,4.14 10.3,10.3 0 0 1 -8.19,3.85 z"
     id="path58"
     inkscape:export-filename="C:\Users\simon\Desktop\logo170x27.png"
     inkscape:export-xdpi="23.339239"
     inkscape:export-ydpi="23.339239"
     inkscape:connector-curvature="0"
     style="fill:url(#linear-gradient-16)" />
</svg>
